<svg width="640" height="480" xmlns="http://www.w3.org/2000/svg">
    <!-- Created with SVG-edit - http://svg-edit.googlecode.com/ -->
    <g>
        <title>Layer 1</title>
        <path d="m147,303c0,-2 0,-4 0,-8c0,-4 -0.49269,-7.02432 0,-12c0.50244,-5.07422 3.23773,-10.93097 4,-14c1.46626,-5.90338 4.27431,-11.88495 5,-14c1.65482,-4.82303 1.28859,-7.86829 3,-12c1.21014,-2.92157 2.87766,-6.06601 4,-8c1.80972,-3.11848 2.34619,-4.70546 4,-7c1.30745,-1.814 3.52016,-4.32367 5,-6c2.38617,-2.703 4.14935,-3.47427 5,-4c1.90211,-1.17557 1.69255,-4.186 3,-6c2.48071,-3.4418 3.34619,-4.70546 5,-7c1.30745,-1.814 2.34619,-2.70546 4,-5c1.30745,-1.814 2.71022,-4.04291 3,-5c1.04483,-3.45085 2.69255,-5.186 4,-7c1.65381,-2.29454 3,-5 5,-7c1,-1 1.69255,-2.186 3,-4c1.65381,-2.29454 3,-3 4,-4c1,-1 2.513,-2.59399 4,-5c1.66251,-2.68999 5.69255,-7.186 7,-9c2.48071,-3.4418 5.513,-4.59399 7,-7c1.66251,-2.68999 3.61731,-5.07613 4,-6c0.5412,-1.30656 3.4588,-1.69344 4,-3c0.38269,-0.92387 0.82443,-1.09789 2,-3c1.05147,-1.70131 1.41885,-2.41885 3,-4c1.58115,-1.58115 1.82443,-3.09789 3,-5c0.52573,-0.85065 1.09789,-2.82443 3,-4c1.70131,-1.05146 1.85274,-1.1731 3,-2c1.814,-1.30745 2.186,-1.69255 4,-3c2.29454,-1.65381 5.41885,-4.41886 7,-6c1.58115,-1.58114 4,-2 5,-3c1,-1 2,-2 3,-3c1,-1 2.07611,-1.61732 3,-2c1.30655,-0.5412 1.69345,-1.4588 3,-2c0.92389,-0.38268 2.4588,0.30656 3,-1c0.38269,-0.92388 2.9176,-2.38687 4,-5c0.76538,-1.84776 0,-4 0,-6c0,-2 0,-4 0,-6c0,-2 0,-4 0,-5c0,-1 0,-2 0,-3c0,-1 0,-2 0,-3c0,-1 2,-2 3,-3c1,-1 1.29291,-1.29289 2,-2c0.70709,-0.70711 0.69345,-2.4588 2,-3c0.92389,-0.38268 2.29291,-0.29289 3,-1c0.70709,-0.70711 1,-2 2,-2c1,0 3,0 4,0c2,0 3,0 5,0c1,0 3,0 4,0c2,0 3,0 6,0c1,0 3,0 4,0c1,0 2.15225,-0.76537 4,0c1.30655,0.5412 1.82376,1.48626 4,2c0.97324,0.22975 1.85272,0.1731 3,1c1.814,1.30745 3,2 4,2c1,0 1.07611,0.61732 2,1c1.30655,0.5412 1.29291,1.29289 2,2c0.70709,0.70711 1.61731,1.07612 2,2c0.5412,1.30656 1.61731,2.07612 2,3c0.5412,1.30656 2.4588,0.69344 3,2c0.38269,0.92388 1.29291,0.29289 2,1c0.70709,0.70711 1,1 3,1c1,0 2.01498,0.24437 4,0c4.09222,-0.50378 6,-1 7,-1c3,0 4,0 6,0c4,0 8,0 10,0c4,0 6,0 9,0c1,0 4,0 5,0c2,0 4,0 6,0c1,0 2,0 5,0c3,0 5,0 7,0c3,0 5,0 8,0c2,0 5,0 7,0c3,0 6,0 9,0c2,0 5,0 8,0c2,0 3,0 4,0c1,0 2,0 3,2c1,2 1.34619,3.70546 3,6c1.30746,1.814 3,6 4,8c1,2 2,5 3,8c1,3 3.48627,6.82375 4,9c0.68927,2.91975 0.48627,4.82375 1,7c0.4595,1.9465 0.4588,3.69344 1,5c0.38269,0.92388 0,2 0,3c0,2 -0.1731,3.85274 -1,5c-1.30746,1.814 -0.77023,3.02675 -1,4c-0.51373,2.17625 -2,4 -2,5c0,1 -2.3764,1.08031 -4,5c-0.76538,1.84776 -2.4588,4.69344 -3,6c-0.38269,0.92387 -1.9176,2.38687 -3,5c-0.38269,0.92387 -1,2 -3,4c-1,1 -3,2 -4,3c-1,1 -2.41885,0.41885 -4,2c-1.58115,1.58115 -1.29291,2.29289 -2,3c-0.70709,0.70711 -1.4588,0.69344 -2,2c-0.38269,0.92387 -1,1 -2,1c-2,0 -3.0535,-0.4595 -5,0c-2.17624,0.51375 -2,2 -3,2c-2,0 -3,0 -4,0c-1,0 -2,0 -4,0c-3,0 -4.15225,-0.76537 -6,0c-1.30655,0.5412 -2,1 -3,1c-1,0 -3.29291,0.29289 -4,1c-0.70709,0.70711 -1,2 -1,3c0,1 0,2 0,3c0,1 0.4588,1.69344 1,3c0.38269,0.92387 0.38687,3.9176 3,5c0.92389,0.38269 1,2 1,4c0,2 0,3 0,5c0,1 1,2 1,3c0,1 0,2 0,3c0,1 0,2 -1,3c-1,1 -1.29871,0.94853 -3,2c-1.9021,1.17557 -3.4588,1.69344 -4,3c-0.76538,1.84776 -2.0535,2.5405 -4,3c-2.17624,0.51375 -4,3 -5,3c-1,0 -3,0 -4,0c-2,0 -4,0 -6,0c-1,0 -3,0 -4,0c-1,0 -2,0 -3,0c-1,0 -2,0 -3,0c-1,0 -2,0 -3,0c-1,0 -3,2 -3,3c0,2 -1,4 -2,6c-1,2 -1.1731,2.85274 -2,4c-1.30746,1.814 -0.0979,3.82443 -2,5c-0.85065,0.52573 -1.4588,0.69344 -2,2c-0.38269,0.92387 -1.29291,2.29289 -2,3c-0.70709,0.70711 -1.4588,1.69344 -2,3c-0.38269,0.92387 -1,2 -2,3c-1,1 -1.14935,1.47427 -2,2c-1.9021,1.17557 -2,3 -2,4c0,1 -2,3 -3,5c-1,2 -2.4588,3.69345 -3,5c-0.38269,0.92389 -1.69254,3.186 -3,5c-0.8269,1.14728 -1.61731,2.07611 -2,3c-0.5412,1.30655 -2,1 -2,2c0,1 -0.69345,2.4588 -2,3c-0.92389,0.38269 -0.77023,1.02676 -1,2c-0.51373,2.17624 -2,3 -2,5c0,1 0,3 0,4c0,2 0.22977,3.02676 0,4c-0.51373,2.17624 -1.48627,2.82376 -2,5c-0.22977,0.97324 0,3 0,4c0,1 0,3 0,4c0,2 0,3 0,4c0,1 0,2 0,3c0,1 0,2 0,4c0,1 0.69345,1.4588 2,2c0.92389,0.38269 1.69345,0.4588 3,1c0.92389,0.38269 2,0 3,0c1,0 1.47427,0.14935 2,1c1.17557,1.9021 3.80902,1.32144 7,3c4.76599,2.50705 7.59399,2.513 10,4c2.69,1.66251 6.07611,0.61731 7,1c1.30655,0.5412 2.69345,2.4588 4,3c0.92389,0.38269 3.54916,2.95517 7,4c1.91418,0.57956 2.69345,0.4588 4,1c0.92389,0.38269 1.69345,1.4588 3,2c0.92389,0.38269 2.44806,-0.57718 5,1c1.9021,1.17557 2,2 3,3c1,1 2.29291,2.29291 3,3c0.70709,0.70709 2,1 4,3c1,1 1.69254,3.186 3,5c1.65381,2.29453 3.34619,3.70547 5,6c1.30746,1.814 2.9176,3.38687 4,6c0.76538,1.84775 1,5 1,6c0,2 1.4588,3.69345 2,5c0.38269,0.92389 0,2 0,3c0,1 1,4 1,5c0,3 1,4 1,7c0,1 0,3 0,5c0,2 -0.76538,3.15225 0,5c1.0824,2.61313 2.4588,3.69345 3,5c0.76538,1.84775 0.29291,3.29291 1,4c0.70709,0.70709 0,2 0,3c0,1 0,2 0,3c0,2 0,3 0,5c0,1 0,3 0,4c0,3 0,4 0,7c0,2 0,3 0,5c0,2 -1.4588,2.69345 -2,4c-0.38269,0.92389 0,3 -1,4c-1,1 -1.85272,2.1731 -3,3c-1.814,1.30746 -3.186,0.69254 -5,2c-1.14728,0.8269 -3.29291,2.29291 -4,3c-0.70709,0.70709 -2.76108,2.41589 -6,4c-2.84073,1.38934 -3.86829,2.28857 -8,4c-2.92157,1.21014 -3.38687,1.9176 -6,3c-0.92389,0.38269 -2.02676,-0.22977 -3,0c-2.17624,0.51373 -2,2 -3,2c-1,0 -2,1 -4,2l-1,0l-1,1" id="svg_1" stroke-width="5" stroke="#000000" fill="none" />
        <path d="m146,300c0,1 0,2 0,5c0,1 0,2 0,3c0,1 0,2 0,3c0,1 0,2 0,3c0,1 0,2 0,3c0,1 -0.38269,2.07611 0,3c0.5412,1.30655 1,2 1,4c0,2 1,2 1,4c0,1 0,2 0,3c0,2 0.48625,2.82376 1,5c0.22975,0.97324 0,3 0,5c0,2 0.95517,2.54916 2,6c0.86935,2.87128 0,4 0,6c0,2 0.77025,4.02676 1,5c0.51375,2.17624 1.4588,2.69345 2,4c0.76537,1.84775 0,4 0,5c0,1 0.4588,1.69345 1,3c0.38269,0.92389 0,3 0,4c0,3 1,5 1,6c0,1 0,2 0,4c0,2 0,4 0,5c0,1 0,2 0,3c0,1 0,2 0,3c0,1 0,2 0,3c0,1 2,3 2,4c0,1 0.48625,1.82376 1,4c0.4595,1.9465 0,4 0,5c0,1 0,3 0,4c0,1 0.4588,2.69345 1,4c0.38269,0.92389 0.4588,1.69345 1,3c0.38269,0.92389 0,2 0,3c0,1 0,2 0,3c0,1 0,2 0,3c0,2 0.76537,3.15225 0,5c-0.5412,1.30655 -0.47427,2.14935 -1,3c-1.17557,1.9021 -2,2 -2,3c0,1 -1,1 -1,2c0,1 0,2 0,3l0,1l0,1l0,1" id="svg_2" stroke-width="5" stroke="#000000" fill="none" />
        <path d="m217,213c1,0 1.82375,-0.48625 4,-1c3.89299,-0.91901 6.70848,-0.67261 13,-3c3.867,-1.4305 10.86829,-3.28859 15,-5c2.92157,-1.21014 3.09789,-1.82443 5,-3c0.85065,-0.52573 2,0 3,-1c1,-1 1.69345,-2.4588 3,-3c0.92389,-0.38269 2,-1 3,-2c1,-1 2,-2 3,-3c1,-1 1.85272,-1.1731 3,-2c1.814,-1.30745 2.02676,-1.77025 3,-2c2.17624,-0.51375 3,-3 4,-3l0,-1" id="svg_3" stroke-width="5" stroke="#000000" fill="none" />
        <path d="m284,195c1,0 1.30655,1.4588 0,2c-1.84775,0.76537 -2,1 -3,1c-2,0 -3.15225,0.23463 -5,1c-1.30655,0.5412 -2,2 -3,2c-1,0 -2.07611,0.61731 -3,1c-1.30655,0.5412 -2.15225,1.23463 -4,2c-1.30655,0.5412 -2.02676,1.77025 -3,2c-2.17624,0.51375 -3,2 -5,2c-1,0 -2.0535,1.5405 -4,2c-2.17625,0.51375 -2.82375,1.48625 -5,2c-0.97325,0.22975 -1.69344,0.4588 -3,1c-1.84776,0.76537 -3,0 -4,1c-1,1 -1.85274,1.1731 -3,2c-1.814,1.30745 -3.07613,0.61731 -4,1c-1.30656,0.5412 -2.4588,0.69344 -3,2c-0.38269,0.92387 -0.29289,1.29289 -1,2c-0.70711,0.70711 -2.29289,1.29289 -3,2c-0.70711,0.70711 -1,3 -1,5c0,1 1,1 3,1c1,0 2,0 4,0c2,0 3.15224,0.76537 5,0c1.30656,-0.5412 3,-1 5,-1c2,0 4,0 5,0c2,0 3,0 4,0c1,0 2,0 3,0c1,0 2,0 3,0c1,0 3,0 4,0c1,0 1.29291,0.29289 2,1c0.70709,0.70711 1.29291,2.29289 2,3c0.70709,0.70711 2,1 3,2c1,1 2,2 2,3l1,0l0,1l1,0" id="svg_4" stroke-width="5" stroke="#000000" fill="none" />
        <path d="m267,248c-1,0 -2.07611,0.38269 -3,0c-1.30655,-0.5412 -1.29291,-1.29289 -2,-2c-0.70709,-0.70711 -1.69345,-1.4588 -3,-2c-0.92389,-0.38269 -2,0 -3,0c-2,0 -2,-1 -3,-1c-1,0 -2.02675,0.22975 -3,0c-2.17625,-0.51375 -2,-2 -4,-2c-1,0 -3,-1 -4,-1c-1,0 -1.29289,-0.29289 -2,-1c-0.70711,-0.70711 -2,0 -3,0c-1,0 -2,0 -3,0c-1,0 -2,0 -3,0c-1,0 -2,0 -3,0c-1,0 -2,0 -3,0c-2,0 -3.29289,-0.70711 -4,0c-0.70711,0.70711 -0.29289,1.29289 -1,2c-0.70711,0.70711 -1,1 -2,2c-1,1 -3.186,1.69255 -5,3c-1.14726,0.8269 -3,2 -4,3c-1,1 -2,1 -3,2c-1,1 -2,1 -3,2l-1,1l-2,0l0,-1" id="svg_5" stroke-width="5" stroke="#000000" fill="none" />
        <path d="m218,209c-2,2 -4,4 -5,5c-2,2 -1.94853,3.29869 -3,5c-1.17557,1.90211 -2.61731,3.07613 -3,4c-0.5412,1.30656 -1,2 -2,4c-1,2 -1,3 -1,5c0,1 -1,2 -1,3c0,1 -1.29289,2.29289 -2,3c-0.70711,0.70711 -0.29289,1.29289 -1,2c-0.70711,0.70711 0,2 -2,4c-1,1 -1.07613,1.61731 -2,2c-1.30656,0.5412 -1.69344,2.4588 -3,3c-0.92387,0.38269 -1,1 -2,1c-1,0 -2,0 -3,0c-1,0 -2,0 -3,0l-1,0" id="svg_6" stroke-width="5" stroke="#000000" fill="none" />
        <path d="m263,365c-1,0 -3.71411,-2.21167 -6,-5c-1.7932,-2.18735 -3.69255,-5.186 -5,-7c-1.65381,-2.29453 -2.33749,-4.31 -4,-7c-0.7435,-1.203 -1.29289,-2.29291 -2,-3c-0.70711,-0.70709 -2,-1 -3,-1c-2,0 -2.29289,-0.29291 -3,-1c-1.41422,-1.41422 -2.87856,-1.49347 -6,-2c-0.98709,-0.16019 -1.69344,-0.4588 -3,-1c-0.92387,-0.38269 -2,0 -3,0c-2,0 -3.29289,0.70709 -4,0c-0.70711,-0.70709 -1.85274,-1.1731 -3,-2c-1.814,-1.30746 -3,-1 -4,-1c-1,0 -2,-2 -4,-2c-1,0 -3,0 -4,0l-1,0l-2,0l0,-1" id="svg_7" stroke-width="5" stroke="#000000" fill="none" />
        <path d="m209,319c2,0 5,0 7,0c3,0 6,0 9,0c2,0 5,0 8,0c1,0 3.15224,-0.76538 5,0c2.61313,1.0824 3.0535,1.5405 5,2c2.17625,0.51373 4,1 6,1c1,0 2.07613,0.61731 3,1c1.30656,0.5412 1.29289,1.29291 2,2c0.70711,0.70709 2.69345,1.4588 4,2c0.92389,0.38269 2.69345,2.4588 4,3c0.92389,0.38269 1.69345,1.4588 3,2c0.92389,0.38269 2,0 2,-1c0,-2 -0.76538,-5.15225 0,-7c0.5412,-1.30655 1,-3 1,-5c0,-2 2,-4 2,-5c0,-1 0,-3 0,-4c0,-2 0,-3 0,-5c0,-1 0,-2 0,-3c0,-1 0.38269,-2.07611 0,-3c-0.5412,-1.30655 -1,-2 -1,-3c0,-1 -0.82443,-1.0979 -2,-3c-0.52573,-0.85065 0,-2 0,-3l0,-1l0,-1" id="svg_8" stroke-width="5" stroke="#000000" fill="none" />
        <path d="m291,287c0,1 0,2 0,3c0,1 -2.4588,2.69345 -3,4c-0.38269,0.92389 -1,2 -1,3c0,1 0.22977,2.02676 0,3c-0.51373,2.17624 -1.4588,2.69345 -2,4c-0.38269,0.92389 -1,3 -1,4c0,2 -1,3 -1,4c0,1 0,2 0,3c0,1 0,2 0,3c0,1 -0.48627,1.82376 -1,4c-0.22977,0.97324 -1,3 -1,4c0,2 -1,4 -1,6c0,1 0,3 0,4c0,1 0,2 0,3c0,1 0,2 0,3c0,1 -0.16019,2.01291 0,3c0.50653,3.12143 1,4 2,5c1,1 1.29291,1.29291 2,2c0.70709,0.70709 0,2 1,3c1,1 0.61731,2.07611 1,3c0.5412,1.30655 1,2 2,3l0,2l0,1l0,2" id="svg_9" stroke-width="5" stroke="#000000" fill="none" />
        <path d="m366,340c-1,0 -3.186,1.69254 -5,3c-1.14728,0.8269 -0.8269,0.14728 0,-1c1.30746,-1.814 2.48627,-4.82376 3,-7c0.68927,-2.91974 0.49622,-3.90778 1,-8c0.48874,-3.97003 0,-5 0,-7c0,-1 0,-3 0,-4c0,-2 0,-3 0,-4c0,-1 0,-2 0,-3c0,-1 1.4588,-0.69345 2,-2c0.38269,-0.92389 2,-1 3,-1c1,0 2,0 3,0c1,0 2,-2 3,-2l1,0l1,0" id="svg_10" stroke-width="5" stroke="#000000" fill="none" />
        <path d="m374,357c0,2 1,2 2,2c2,0 3.06458,0.8009 8,0c3.12143,-0.50653 7.04132,-2.84723 11,-4c3.03616,-0.88412 4.69345,-3.4588 6,-4c0.92389,-0.38269 2,0 3,0c1,0 2.31,-0.66251 5,1c1.203,0.7435 1.19028,2.88153 3,6c1.12234,1.93399 1.13065,5.12872 2,8c1.04483,3.45084 2,4 3,6l0,1" id="svg_11" stroke-width="5" stroke="#000000" fill="none" />
        <path d="m377,394c-1,0 -1,1 2,1c5,0 8.30447,1.53073 12,0c1.30655,-0.5412 5,-3 7,-3c1,0 3.58578,-1.41422 5,0c0.70709,0.70709 2,4 2,5c0,2 -0.68927,4.08026 0,7c0.51373,2.17624 2.95517,4.54916 4,8c0.28979,0.95709 0,3 1,5l0,1" id="svg_12" stroke-width="5" stroke="#000000" fill="none" />
        <path d="m396,440c1,0 4,1 5,1c4,0 8,0 12,0c1,0 3,0 6,0c2,0 3.69345,-0.4588 5,-1c1.84775,-0.76538 4.15225,0.76538 6,0c3.91968,-1.6236 5.0535,-2.5405 7,-3c2.17624,-0.51373 4,-3 6,-4c2,-1 2.82376,-1.48627 5,-2c0.97324,-0.22977 3,0 4,0c3,0 4.41885,-0.58115 6,1c1.58115,1.58115 1.71411,2.21167 4,5c0.89661,1.09366 2,2 3,3l0,1l0,1" id="svg_13" stroke-width="5" stroke="#000000" fill="none" />
        <path d="m364,446c4,2 8.13202,2.75531 12,5c3.11847,1.80972 4.88855,3.19409 10,6c1.96014,1.07602 3.31,2.33749 6,4c1.203,0.7435 3.07611,2.61731 4,3c1.30655,0.5412 4.21167,1.71411 7,4c1.09366,0.89661 2.69345,2.4588 4,3c0.92389,0.38269 1.69345,1.4588 3,2c0.92389,0.38269 1.82376,1.48627 4,2c0.97324,0.22977 3,0 6,0c2,0 5,0 8,-1l3,-2" id="svg_14" stroke-width="5" stroke="#000000" fill="none" />
        <path d="m392,412c2,0 3.06458,0.8009 8,0c3.12143,-0.50653 5.82376,-1.48627 8,-2c2.91974,-0.68927 8,-1 10,-1c1,0 3.29291,-1.29291 4,-2c0.70709,-0.70709 0.82108,-2.29871 4,-4c0.88168,-0.47186 2,-2 3,-4c1,-2 2.4588,-2.69345 3,-4c0.38269,-0.92389 -0.30746,-2.186 1,-4c0.8269,-1.14728 2.07611,-1.61731 3,-2c1.30655,-0.5412 2,-1 4,-1l1,0l1,0l1,0" id="svg_15" stroke-width="5" stroke="#000000" fill="none" />
        <path d="m355,375c1,0 2.77023,-0.02676 3,-1c0.51373,-2.17624 1.49347,-2.87857 2,-6c0.32037,-1.97418 -0.38269,-4.07611 0,-5c0.5412,-1.30655 2,-2 3,-3c1,-1 1.77023,-2.02676 2,-3c0.51373,-2.17624 1.4588,-2.69345 2,-4c0.38269,-0.92389 0.23462,-3.15225 1,-5c0.5412,-1.30655 1,-2 2,-4l0,-1l0,-1l0,-1" id="svg_16" stroke-width="5" stroke="#000000" fill="none" />
        <path d="m324,411c1,0 2,0 3,0c1,0 3,0 6,0c1,0 4,0 7,0c2,0 4,0 5,0c3,0 5.07611,-0.38269 6,0c1.30655,0.5412 2,2 4,2c1,0 3.02676,-0.22977 4,0c2.17624,0.51373 2.29291,1.29291 3,2c1.41422,1.41422 2.29291,0.29291 3,1c0.70709,0.70709 0,3 1,4l0,1" id="svg_17" stroke-width="5" stroke="#000000" fill="none" />
        <path d="m334,383c0,-2 2,-3 2,-5c0,-1 0,-3 0,-4c0,-2 0,-3 0,-5c0,-2 1.4588,-3.69345 2,-5c0.38269,-0.92389 0,-2 0,-3c0,-1 1,-1 2,-3l0,-1" id="svg_18" stroke-width="5" stroke="#000000" fill="none" />
        <path d="m446,109c0,0 -1,0 -3,0c-3,0 -4,0 -5,-1c0,0 -0.61731,-0.07612 -1,-1c-0.5412,-1.30656 -1,-2 -1,-3c0,-1 2.07611,-1.61732 3,-2c1.30655,-0.5412 3.07611,-0.61732 4,-1c1.30655,-0.5412 2.07611,-1.38268 3,-1c1.30655,0.5412 1,2 1,3c0,1 0,2 0,3c0,1 -1,1 -2,1c-1,0 -2,0 -3,0c-1,0 -2,0 -2,-1c0,-1 1,-1 1,-2c0,-2 1,-2 2,-2c1,0 0,0 -1,0l-1,0" id="svg_19" stroke-width="5" stroke="#000000" fill="none" />
        <path d="m280,89c0,1 0,2 0,3c0,2 0,3 0,5c0,1 0,2 0,3c0,1 0,2 0,3c0,1 -0.38269,2.07612 0,3c0.5412,1.30656 3,1 3,2c0,1 1.07611,1.61732 2,2c1.30655,0.5412 0.69345,2.4588 2,3c1.84775,0.76537 3.29291,1.29289 4,2c0.70709,0.70711 0.23462,1.15224 1,3c0.5412,1.30656 1.94855,1.2987 3,3c1.17557,1.90211 2,2 3,2c1,0 2,0 3,0c1,0 2.29291,0.29289 3,1c0.70709,0.70711 1,1 2,1l0,1" id="svg_20" stroke-width="5" stroke="#000000" fill="none" />
        <path d="m368,219c-1,0 -2.29291,0.70711 -3,0c-0.70709,-0.70711 -0.0979,-1.82443 -2,-3c-0.85065,-0.52573 -1.82376,-1.48625 -4,-2c-0.97324,-0.22975 -1,-1 -2,-1l-1,-1l-1,-1" id="svg_21" stroke-width="5" stroke="#000000" fill="none" />
    </g>
</svg>